<?xml version="1.0" encoding="UTF-8" standalone="no"?>
<!-- Created with Inkscape (http://www.inkscape.org/) -->

<svg
   xmlns:dc="http://purl.org/dc/elements/1.1/"
   xmlns:cc="http://creativecommons.org/ns#"
   xmlns:rdf="http://www.w3.org/1999/02/22-rdf-syntax-ns#"
   xmlns:svg="http://www.w3.org/2000/svg"
   xmlns="http://www.w3.org/2000/svg"
   xmlns:sodipodi="http://sodipodi.sourceforge.net/DTD/sodipodi-0.dtd"
   xmlns:inkscape="http://www.inkscape.org/namespaces/inkscape"
   width="744.09448819"
   height="1052.3622047"
   id="svg2"
   version="1.1"
   inkscape:version="0.48.4 r9939"
   sodipodi:docname="Gene_cards2.svg">
  <defs
     id="defs4" />
  <sodipodi:namedview
     id="base"
     pagecolor="#ffffff"
     bordercolor="#666666"
     borderopacity="1.0"
     inkscape:pageopacity="0.0"
     inkscape:pageshadow="2"
     inkscape:zoom="0.49497475"
     inkscape:cx="326.08773"
     inkscape:cy="514.58196"
     inkscape:document-units="px"
     inkscape:current-layer="layer1"
     showgrid="false"
     inkscape:window-width="985"
     inkscape:window-height="848"
     inkscape:window-x="10"
     inkscape:window-y="24"
     inkscape:window-maximized="0" />
  <metadata
     id="metadata7">
    <rdf:RDF>
      <cc:Work
         rdf:about="">
        <dc:format>image/svg+xml</dc:format>
        <dc:type
           rdf:resource="http://purl.org/dc/dcmitype/StillImage" />
        <dc:title />
      </cc:Work>
    </rdf:RDF>
  </metadata>
  <g
     inkscape:groupmode="layer"
     id="layer2"
     inkscape:label="Base" />
  <g
     inkscape:label="Layer 1"
     inkscape:groupmode="layer"
     id="layer1">
    <g
       id="g7344"
       style="stroke:#000000;stroke-opacity:1;stroke-width:3;stroke-miterlimit:4;stroke-dasharray:none">
      <rect
         y="40.647881"
         x="34.285713"
         height="145.71429"
         width="671.42859"
         id="rect2985"
         style="fill:#d0561a;fill-opacity:1;stroke:#000000;stroke-opacity:1;stroke-width:3;stroke-miterlimit:4;stroke-dasharray:none" />
      <path
         transform="matrix(0.38669901,0,0,0.58447146,250.54233,4.4067357)"
         d="m -373.75645,186.66145 a 64.649765,71.720833 0 1 1 -129.29953,0 64.649765,71.720833 0 1 1 129.29953,0 z"
         sodipodi:ry="71.720833"
         sodipodi:rx="64.649765"
         sodipodi:cy="186.66145"
         sodipodi:cx="-438.40622"
         id="path3838"
         style="fill:#800000;fill-opacity:1;stroke:#000000;stroke-opacity:1;stroke-width:6.31034451;stroke-miterlimit:4;stroke-dasharray:none"
         sodipodi:type="arc" />
      <path
         transform="matrix(0.38669901,0,0,0.58447146,310.29506,4.4067357)"
         d="m -373.75645,186.66145 a 64.649765,71.720833 0 1 1 -129.29953,0 64.649765,71.720833 0 1 1 129.29953,0 z"
         sodipodi:ry="71.720833"
         sodipodi:rx="64.649765"
         sodipodi:cy="186.66145"
         sodipodi:cx="-438.40622"
         id="path3838-2"
         style="fill:#000080;fill-opacity:1;stroke:#000000;stroke-opacity:1;stroke-width:6.31034451;stroke-miterlimit:4;stroke-dasharray:none"
         sodipodi:type="arc" />
      <path
         transform="matrix(0.38669901,0,0,0.58447146,370.04779,4.4067357)"
         d="m -373.75645,186.66145 a 64.649765,71.720833 0 1 1 -129.29953,0 64.649765,71.720833 0 1 1 129.29953,0 z"
         sodipodi:ry="71.720833"
         sodipodi:rx="64.649765"
         sodipodi:cy="186.66145"
         sodipodi:cx="-438.40622"
         id="path3838-7"
         style="fill:#800000;fill-opacity:1;stroke:#000000;stroke-opacity:1;stroke-width:6.31034451;stroke-miterlimit:4;stroke-dasharray:none"
         sodipodi:type="arc" />
      <path
         transform="matrix(0.38669901,0,0,0.58447146,429.80053,4.4067357)"
         d="m -373.75645,186.66145 a 64.649765,71.720833 0 1 1 -129.29953,0 64.649765,71.720833 0 1 1 129.29953,0 z"
         sodipodi:ry="71.720833"
         sodipodi:rx="64.649765"
         sodipodi:cy="186.66145"
         sodipodi:cx="-438.40622"
         id="path3838-3"
         style="fill:#008000;fill-opacity:1;stroke:#000000;stroke-opacity:1;stroke-width:6.31034451;stroke-miterlimit:4;stroke-dasharray:none"
         sodipodi:type="arc" />
      <path
         transform="matrix(0.38669901,0,0,0.58447146,489.55326,4.4067357)"
         d="m -373.75645,186.66145 a 64.649765,71.720833 0 1 1 -129.29953,0 64.649765,71.720833 0 1 1 129.29953,0 z"
         sodipodi:ry="71.720833"
         sodipodi:rx="64.649765"
         sodipodi:cy="186.66145"
         sodipodi:cx="-438.40622"
         id="path3838-30"
         style="fill:#008000;fill-opacity:1;stroke:#000000;stroke-opacity:1;stroke-width:6.31034451;stroke-miterlimit:4;stroke-dasharray:none"
         sodipodi:type="arc" />
      <path
         transform="matrix(0.38669901,0,0,0.58447146,609.05871,4.4067357)"
         d="m -373.75645,186.66145 a 64.649765,71.720833 0 1 1 -129.29953,0 64.649765,71.720833 0 1 1 129.29953,0 z"
         sodipodi:ry="71.720833"
         sodipodi:rx="64.649765"
         sodipodi:cy="186.66145"
         sodipodi:cx="-438.40622"
         id="path3838-25"
         style="fill:#000080;fill-opacity:1;stroke:#000000;stroke-opacity:1;stroke-width:6.31034451;stroke-miterlimit:4;stroke-dasharray:none"
         sodipodi:type="arc" />
      <path
         transform="matrix(0.38669901,0,0,0.58447146,668.81145,4.4067357)"
         d="m -373.75645,186.66145 a 64.649765,71.720833 0 1 1 -129.29953,0 64.649765,71.720833 0 1 1 129.29953,0 z"
         sodipodi:ry="71.720833"
         sodipodi:rx="64.649765"
         sodipodi:cy="186.66145"
         sodipodi:cx="-438.40622"
         id="path3838-6"
         style="fill:#008000;fill-opacity:1;stroke:#000000;stroke-opacity:1;stroke-width:6.31034451;stroke-miterlimit:4;stroke-dasharray:none"
         sodipodi:type="arc" />
      <path
         transform="matrix(0.38669901,0,0,0.58447146,549.30597,4.4067357)"
         d="m -373.75645,186.66145 a 64.649765,71.720833 0 1 1 -129.29953,0 64.649765,71.720833 0 1 1 129.29953,0 z"
         sodipodi:ry="71.720833"
         sodipodi:rx="64.649765"
         sodipodi:cy="186.66145"
         sodipodi:cx="-438.40622"
         id="path3838-39"
         style="fill:#000080;fill-opacity:1;stroke:#000000;stroke-opacity:1;stroke-width:6.31034451;stroke-miterlimit:4;stroke-dasharray:none"
         sodipodi:type="arc" />
      <rect
         y="242.01933"
         x="34.285713"
         height="145.71429"
         width="671.42859"
         id="rect2985-2"
         style="fill:#84b13a;fill-opacity:1;stroke:#000000;stroke-opacity:1;stroke-width:3;stroke-miterlimit:4;stroke-dasharray:none" />
      <path
         transform="matrix(0.38669901,0,0,0.58447146,250.54233,205.15337)"
         d="m -373.75645,186.66145 a 64.649765,71.720833 0 1 1 -129.29953,0 64.649765,71.720833 0 1 1 129.29953,0 z"
         sodipodi:ry="71.720833"
         sodipodi:rx="64.649765"
         sodipodi:cy="186.66145"
         sodipodi:cx="-438.40622"
         id="path3838-4"
         style="fill:#ffcc00;fill-opacity:1;stroke:#000000;stroke-opacity:1;stroke-width:6.31034451;stroke-miterlimit:4;stroke-dasharray:none"
         sodipodi:type="arc" />
      <path
         transform="matrix(0.38669901,0,0,0.58447146,310.29506,205.15337)"
         d="m -373.75645,186.66145 a 64.649765,71.720833 0 1 1 -129.29953,0 64.649765,71.720833 0 1 1 129.29953,0 z"
         sodipodi:ry="71.720833"
         sodipodi:rx="64.649765"
         sodipodi:cy="186.66145"
         sodipodi:cx="-438.40622"
         id="path3838-2-8"
         style="fill:#008000;fill-opacity:1;stroke:#000000;stroke-opacity:1;stroke-width:6.31034451;stroke-miterlimit:4;stroke-dasharray:none"
         sodipodi:type="arc" />
      <path
         transform="matrix(0.38669901,0,0,0.58447146,370.04779,205.15337)"
         d="m -373.75645,186.66145 a 64.649765,71.720833 0 1 1 -129.29953,0 64.649765,71.720833 0 1 1 129.29953,0 z"
         sodipodi:ry="71.720833"
         sodipodi:rx="64.649765"
         sodipodi:cy="186.66145"
         sodipodi:cx="-438.40622"
         id="path3838-7-1"
         style="fill:#008000;fill-opacity:1;stroke:#000000;stroke-opacity:1;stroke-width:6.31034451;stroke-miterlimit:4;stroke-dasharray:none"
         sodipodi:type="arc" />
      <path
         transform="matrix(0.38669901,0,0,0.58447146,429.80053,205.15337)"
         d="m -373.75645,186.66145 a 64.649765,71.720833 0 1 1 -129.29953,0 64.649765,71.720833 0 1 1 129.29953,0 z"
         sodipodi:ry="71.720833"
         sodipodi:rx="64.649765"
         sodipodi:cy="186.66145"
         sodipodi:cx="-438.40622"
         id="path3838-3-0"
         style="fill:#ffcc00;fill-opacity:1;stroke:#000000;stroke-opacity:1;stroke-width:6.31034451;stroke-miterlimit:4;stroke-dasharray:none"
         sodipodi:type="arc" />
      <path
         transform="matrix(0.38669901,0,0,0.58447146,489.55326,205.15337)"
         d="m -373.75645,186.66145 a 64.649765,71.720833 0 1 1 -129.29953,0 64.649765,71.720833 0 1 1 129.29953,0 z"
         sodipodi:ry="71.720833"
         sodipodi:rx="64.649765"
         sodipodi:cy="186.66145"
         sodipodi:cx="-438.40622"
         id="path3838-30-1"
         style="fill:#800000;fill-opacity:1;stroke:#000000;stroke-opacity:1;stroke-width:6.31034451;stroke-miterlimit:4;stroke-dasharray:none"
         sodipodi:type="arc" />
      <path
         transform="matrix(0.38669901,0,0,0.58447146,609.05871,205.15337)"
         d="m -373.75645,186.66145 a 64.649765,71.720833 0 1 1 -129.29953,0 64.649765,71.720833 0 1 1 129.29953,0 z"
         sodipodi:ry="71.720833"
         sodipodi:rx="64.649765"
         sodipodi:cy="186.66145"
         sodipodi:cx="-438.40622"
         id="path3838-25-6"
         style="fill:#ffcc00;fill-opacity:1;stroke:#000000;stroke-opacity:1;stroke-width:6.31034451;stroke-miterlimit:4;stroke-dasharray:none"
         sodipodi:type="arc" />
      <path
         transform="matrix(0.38669901,0,0,0.58447146,668.81145,205.15337)"
         d="m -373.75645,186.66145 a 64.649765,71.720833 0 1 1 -129.29953,0 64.649765,71.720833 0 1 1 129.29953,0 z"
         sodipodi:ry="71.720833"
         sodipodi:rx="64.649765"
         sodipodi:cy="186.66145"
         sodipodi:cx="-438.40622"
         id="path3838-6-7"
         style="fill:#ffcc00;fill-opacity:1;stroke:#000000;stroke-opacity:1;stroke-width:6.31034451;stroke-miterlimit:4;stroke-dasharray:none"
         sodipodi:type="arc" />
      <path
         transform="matrix(0.38669901,0,0,0.58447146,549.30597,205.15337)"
         d="m -373.75645,186.66145 a 64.649765,71.720833 0 1 1 -129.29953,0 64.649765,71.720833 0 1 1 129.29953,0 z"
         sodipodi:ry="71.720833"
         sodipodi:rx="64.649765"
         sodipodi:cy="186.66145"
         sodipodi:cx="-438.40622"
         id="path3838-39-6"
         style="fill:#800000;fill-opacity:1;stroke:#000000;stroke-opacity:1;stroke-width:6.31034451;stroke-miterlimit:4;stroke-dasharray:none"
         sodipodi:type="arc" />
      <rect
         y="443.39075"
         x="34.285713"
         height="145.71429"
         width="671.42859"
         id="rect2985-6"
         style="fill:#84b13a;fill-opacity:1;stroke:#000000;stroke-opacity:1;stroke-width:3;stroke-miterlimit:4;stroke-dasharray:none" />
      <path
         transform="matrix(0.38669901,0,0,0.58447146,250.54233,405.92214)"
         d="m -373.75645,186.66145 a 64.649765,71.720833 0 1 1 -129.29953,0 64.649765,71.720833 0 1 1 129.29953,0 z"
         sodipodi:ry="71.720833"
         sodipodi:rx="64.649765"
         sodipodi:cy="186.66145"
         sodipodi:cx="-438.40622"
         id="path3838-63"
         style="fill:#008000;fill-opacity:1;stroke:#000000;stroke-opacity:1;stroke-width:6.31034451;stroke-miterlimit:4;stroke-dasharray:none"
         sodipodi:type="arc" />
      <path
         transform="matrix(0.38669901,0,0,0.58447146,310.29506,405.92214)"
         d="m -373.75645,186.66145 a 64.649765,71.720833 0 1 1 -129.29953,0 64.649765,71.720833 0 1 1 129.29953,0 z"
         sodipodi:ry="71.720833"
         sodipodi:rx="64.649765"
         sodipodi:cy="186.66145"
         sodipodi:cx="-438.40622"
         id="path3838-2-1"
         style="fill:#000080;fill-opacity:1;stroke:#000000;stroke-opacity:1;stroke-width:6.31034451;stroke-miterlimit:4;stroke-dasharray:none"
         sodipodi:type="arc" />
      <path
         transform="matrix(0.38669901,0,0,0.58447146,370.04779,405.92214)"
         d="m -373.75645,186.66145 a 64.649765,71.720833 0 1 1 -129.29953,0 64.649765,71.720833 0 1 1 129.29953,0 z"
         sodipodi:ry="71.720833"
         sodipodi:rx="64.649765"
         sodipodi:cy="186.66145"
         sodipodi:cx="-438.40622"
         id="path3838-7-9"
         style="fill:#000080;fill-opacity:1;stroke:#000000;stroke-opacity:1;stroke-width:6.31034451;stroke-miterlimit:4;stroke-dasharray:none"
         sodipodi:type="arc" />
      <path
         transform="matrix(0.38669901,0,0,0.58447146,429.80053,405.92214)"
         d="m -373.75645,186.66145 a 64.649765,71.720833 0 1 1 -129.29953,0 64.649765,71.720833 0 1 1 129.29953,0 z"
         sodipodi:ry="71.720833"
         sodipodi:rx="64.649765"
         sodipodi:cy="186.66145"
         sodipodi:cx="-438.40622"
         id="path3838-3-3"
         style="fill:#000080;fill-opacity:1;stroke:#000000;stroke-opacity:1;stroke-width:6.31034451;stroke-miterlimit:4;stroke-dasharray:none"
         sodipodi:type="arc" />
      <path
         transform="matrix(0.38669901,0,0,0.58447146,489.55326,405.92214)"
         d="m -373.75645,186.66145 a 64.649765,71.720833 0 1 1 -129.29953,0 64.649765,71.720833 0 1 1 129.29953,0 z"
         sodipodi:ry="71.720833"
         sodipodi:rx="64.649765"
         sodipodi:cy="186.66145"
         sodipodi:cx="-438.40622"
         id="path3838-30-4"
         style="fill:#ffcc00;fill-opacity:1;stroke:#000000;stroke-opacity:1;stroke-width:6.31034451;stroke-miterlimit:4;stroke-dasharray:none"
         sodipodi:type="arc" />
      <path
         transform="matrix(0.38669901,0,0,0.58447146,609.05871,405.92214)"
         d="m -373.75645,186.66145 a 64.649765,71.720833 0 1 1 -129.29953,0 64.649765,71.720833 0 1 1 129.29953,0 z"
         sodipodi:ry="71.720833"
         sodipodi:rx="64.649765"
         sodipodi:cy="186.66145"
         sodipodi:cx="-438.40622"
         id="path3838-25-4"
         style="fill:#800000;fill-opacity:1;stroke:#000000;stroke-opacity:1;stroke-width:6.31034451;stroke-miterlimit:4;stroke-dasharray:none"
         sodipodi:type="arc" />
      <path
         transform="matrix(0.38669901,0,0,0.58447146,668.81145,405.92214)"
         d="m -373.75645,186.66145 a 64.649765,71.720833 0 1 1 -129.29953,0 64.649765,71.720833 0 1 1 129.29953,0 z"
         sodipodi:ry="71.720833"
         sodipodi:rx="64.649765"
         sodipodi:cy="186.66145"
         sodipodi:cx="-438.40622"
         id="path3838-6-3"
         style="fill:#008000;fill-opacity:1;stroke:#000000;stroke-opacity:1;stroke-width:6.31034451;stroke-miterlimit:4;stroke-dasharray:none"
         sodipodi:type="arc" />
      <path
         transform="matrix(0.38669901,0,0,0.58447146,549.30597,405.92214)"
         d="m -373.75645,186.66145 a 64.649765,71.720833 0 1 1 -129.29953,0 64.649765,71.720833 0 1 1 129.29953,0 z"
         sodipodi:ry="71.720833"
         sodipodi:rx="64.649765"
         sodipodi:cy="186.66145"
         sodipodi:cx="-438.40622"
         id="path3838-39-9"
         style="fill:#ffcc00;fill-opacity:1;stroke:#000000;stroke-opacity:1;stroke-width:6.31034451;stroke-miterlimit:4;stroke-dasharray:none"
         sodipodi:type="arc" />
      <rect
         y="644.76221"
         x="34.285713"
         height="145.71429"
         width="671.42859"
         id="rect2985-5"
         style="fill:#84b13a;fill-opacity:1;stroke:#000000;stroke-opacity:1;stroke-width:3;stroke-miterlimit:4;stroke-dasharray:none" />
      <path
         transform="matrix(0.38669901,0,0,0.58447146,250.54233,606.69083)"
         d="m -373.75645,186.66145 a 64.649765,71.720833 0 1 1 -129.29953,0 64.649765,71.720833 0 1 1 129.29953,0 z"
         sodipodi:ry="71.720833"
         sodipodi:rx="64.649765"
         sodipodi:cy="186.66145"
         sodipodi:cx="-438.40622"
         id="path3838-44"
         style="fill:#008000;fill-opacity:1;stroke:#000000;stroke-opacity:1;stroke-width:6.31034451;stroke-miterlimit:4;stroke-dasharray:none"
         sodipodi:type="arc" />
      <path
         transform="matrix(0.38669901,0,0,0.58447146,310.29506,606.69083)"
         d="m -373.75645,186.66145 a 64.649765,71.720833 0 1 1 -129.29953,0 64.649765,71.720833 0 1 1 129.29953,0 z"
         sodipodi:ry="71.720833"
         sodipodi:rx="64.649765"
         sodipodi:cy="186.66145"
         sodipodi:cx="-438.40622"
         id="path3838-2-9"
         style="fill:#800000;fill-opacity:1;stroke:#000000;stroke-opacity:1;stroke-width:6.31034451;stroke-miterlimit:4;stroke-dasharray:none"
         sodipodi:type="arc" />
      <path
         transform="matrix(0.38669901,0,0,0.58447146,370.04779,606.69083)"
         d="m -373.75645,186.66145 a 64.649765,71.720833 0 1 1 -129.29953,0 64.649765,71.720833 0 1 1 129.29953,0 z"
         sodipodi:ry="71.720833"
         sodipodi:rx="64.649765"
         sodipodi:cy="186.66145"
         sodipodi:cx="-438.40622"
         id="path3838-7-7"
         style="fill:#ffcc00;fill-opacity:1;stroke:#000000;stroke-opacity:1;stroke-width:6.31034451;stroke-miterlimit:4;stroke-dasharray:none"
         sodipodi:type="arc" />
      <path
         transform="matrix(0.38669901,0,0,0.58447146,429.80053,606.69083)"
         d="m -373.75645,186.66145 a 64.649765,71.720833 0 1 1 -129.29953,0 64.649765,71.720833 0 1 1 129.29953,0 z"
         sodipodi:ry="71.720833"
         sodipodi:rx="64.649765"
         sodipodi:cy="186.66145"
         sodipodi:cx="-438.40622"
         id="path3838-3-6"
         style="fill:#800000;fill-opacity:1;stroke:#000000;stroke-opacity:1;stroke-width:6.31034451;stroke-miterlimit:4;stroke-dasharray:none"
         sodipodi:type="arc" />
      <path
         transform="matrix(0.38669901,0,0,0.58447146,489.55326,606.69083)"
         d="m -373.75645,186.66145 a 64.649765,71.720833 0 1 1 -129.29953,0 64.649765,71.720833 0 1 1 129.29953,0 z"
         sodipodi:ry="71.720833"
         sodipodi:rx="64.649765"
         sodipodi:cy="186.66145"
         sodipodi:cx="-438.40622"
         id="path3838-30-6"
         style="fill:#000080;fill-opacity:1;stroke:#000000;stroke-opacity:1;stroke-width:6.31034451;stroke-miterlimit:4;stroke-dasharray:none"
         sodipodi:type="arc" />
      <path
         transform="matrix(0.38669901,0,0,0.58447146,609.05871,606.69083)"
         d="m -373.75645,186.66145 a 64.649765,71.720833 0 1 1 -129.29953,0 64.649765,71.720833 0 1 1 129.29953,0 z"
         sodipodi:ry="71.720833"
         sodipodi:rx="64.649765"
         sodipodi:cy="186.66145"
         sodipodi:cx="-438.40622"
         id="path3838-25-3"
         style="fill:#ffcc00;fill-opacity:1;stroke:#000000;stroke-opacity:1;stroke-width:6.31034451;stroke-miterlimit:4;stroke-dasharray:none"
         sodipodi:type="arc" />
      <path
         transform="matrix(0.38669901,0,0,0.58447146,668.81145,606.69083)"
         d="m -373.75645,186.66145 a 64.649765,71.720833 0 1 1 -129.29953,0 64.649765,71.720833 0 1 1 129.29953,0 z"
         sodipodi:ry="71.720833"
         sodipodi:rx="64.649765"
         sodipodi:cy="186.66145"
         sodipodi:cx="-438.40622"
         id="path3838-6-4"
         style="fill:#ffcc00;fill-opacity:1;stroke:#000000;stroke-opacity:1;stroke-width:6.31034451;stroke-miterlimit:4;stroke-dasharray:none"
         sodipodi:type="arc" />
      <path
         transform="matrix(0.38669901,0,0,0.58447146,549.30597,606.69083)"
         d="m -373.75645,186.66145 a 64.649765,71.720833 0 1 1 -129.29953,0 64.649765,71.720833 0 1 1 129.29953,0 z"
         sodipodi:ry="71.720833"
         sodipodi:rx="64.649765"
         sodipodi:cy="186.66145"
         sodipodi:cx="-438.40622"
         id="path3838-39-94"
         style="fill:#008000;fill-opacity:1;stroke:#000000;stroke-opacity:1;stroke-width:6.31034451;stroke-miterlimit:4;stroke-dasharray:none"
         sodipodi:type="arc" />
      <rect
         y="846.13361"
         x="34.285713"
         height="145.71429"
         width="671.42859"
         id="rect2985-1"
         style="fill:#84b13a;fill-opacity:1;stroke:#000000;stroke-opacity:1;stroke-width:3;stroke-miterlimit:4;stroke-dasharray:none" />
      <path
         transform="matrix(0.38669901,0,0,0.58447146,250.54233,807.4596)"
         d="m -373.75645,186.66145 a 64.649765,71.720833 0 1 1 -129.29953,0 64.649765,71.720833 0 1 1 129.29953,0 z"
         sodipodi:ry="71.720833"
         sodipodi:rx="64.649765"
         sodipodi:cy="186.66145"
         sodipodi:cx="-438.40622"
         id="path3838-24"
         style="fill:#000080;fill-opacity:1;stroke:#000000;stroke-opacity:1;stroke-width:6.31034451;stroke-miterlimit:4;stroke-dasharray:none"
         sodipodi:type="arc" />
      <path
         transform="matrix(0.38669901,0,0,0.58447146,310.29506,807.4596)"
         d="m -373.75645,186.66145 a 64.649765,71.720833 0 1 1 -129.29953,0 64.649765,71.720833 0 1 1 129.29953,0 z"
         sodipodi:ry="71.720833"
         sodipodi:rx="64.649765"
         sodipodi:cy="186.66145"
         sodipodi:cx="-438.40622"
         id="path3838-2-3"
         style="fill:#008000;fill-opacity:1;stroke:#000000;stroke-opacity:1;stroke-width:6.31034451;stroke-miterlimit:4;stroke-dasharray:none"
         sodipodi:type="arc" />
      <path
         transform="matrix(0.38669901,0,0,0.58447146,370.04779,807.4596)"
         d="m -373.75645,186.66145 a 64.649765,71.720833 0 1 1 -129.29953,0 64.649765,71.720833 0 1 1 129.29953,0 z"
         sodipodi:ry="71.720833"
         sodipodi:rx="64.649765"
         sodipodi:cy="186.66145"
         sodipodi:cx="-438.40622"
         id="path3838-7-92"
         style="fill:#ffcc00;fill-opacity:1;stroke:#000000;stroke-opacity:1;stroke-width:6.31034451;stroke-miterlimit:4;stroke-dasharray:none"
         sodipodi:type="arc" />
      <path
         transform="matrix(0.38669901,0,0,0.58447146,429.80053,807.4596)"
         d="m -373.75645,186.66145 a 64.649765,71.720833 0 1 1 -129.29953,0 64.649765,71.720833 0 1 1 129.29953,0 z"
         sodipodi:ry="71.720833"
         sodipodi:rx="64.649765"
         sodipodi:cy="186.66145"
         sodipodi:cx="-438.40622"
         id="path3838-3-7"
         style="fill:#ffcc00;fill-opacity:1;stroke:#000000;stroke-opacity:1;stroke-width:6.31034451;stroke-miterlimit:4;stroke-dasharray:none"
         sodipodi:type="arc" />
      <path
         transform="matrix(0.38669901,0,0,0.58447146,489.55326,807.4596)"
         d="m -373.75645,186.66145 a 64.649765,71.720833 0 1 1 -129.29953,0 64.649765,71.720833 0 1 1 129.29953,0 z"
         sodipodi:ry="71.720833"
         sodipodi:rx="64.649765"
         sodipodi:cy="186.66145"
         sodipodi:cx="-438.40622"
         id="path3838-30-2"
         style="fill:#800000;fill-opacity:1;stroke:#000000;stroke-opacity:1;stroke-width:6.31034451;stroke-miterlimit:4;stroke-dasharray:none"
         sodipodi:type="arc" />
      <path
         transform="matrix(0.38669901,0,0,0.58447146,609.05871,807.4596)"
         d="m -373.75645,186.66145 a 64.649765,71.720833 0 1 1 -129.29953,0 64.649765,71.720833 0 1 1 129.29953,0 z"
         sodipodi:ry="71.720833"
         sodipodi:rx="64.649765"
         sodipodi:cy="186.66145"
         sodipodi:cx="-438.40622"
         id="path3838-25-1"
         style="fill:#000080;fill-opacity:1;stroke:#000000;stroke-opacity:1;stroke-width:6.31034451;stroke-miterlimit:4;stroke-dasharray:none"
         sodipodi:type="arc" />
      <path
         transform="matrix(0.38669901,0,0,0.58447146,668.81145,807.4596)"
         d="m -373.75645,186.66145 a 64.649765,71.720833 0 1 1 -129.29953,0 64.649765,71.720833 0 1 1 129.29953,0 z"
         sodipodi:ry="71.720833"
         sodipodi:rx="64.649765"
         sodipodi:cy="186.66145"
         sodipodi:cx="-438.40622"
         id="path3838-6-2"
         style="fill:#008000;fill-opacity:1;stroke:#000000;stroke-opacity:1;stroke-width:6.31034451;stroke-miterlimit:4;stroke-dasharray:none"
         sodipodi:type="arc" />
      <path
         transform="matrix(0.38669901,0,0,0.58447146,549.30597,807.4596)"
         d="m -373.75645,186.66145 a 64.649765,71.720833 0 1 1 -129.29953,0 64.649765,71.720833 0 1 1 129.29953,0 z"
         sodipodi:ry="71.720833"
         sodipodi:rx="64.649765"
         sodipodi:cy="186.66145"
         sodipodi:cx="-438.40622"
         id="path3838-39-97"
         style="fill:#008000;fill-opacity:1;stroke:#000000;stroke-opacity:1;stroke-width:6.31034451;stroke-miterlimit:4;stroke-dasharray:none"
         sodipodi:type="arc" />
    </g>
    <text
       xml:space="preserve"
       style="font-size:40px;font-style:normal;font-variant:normal;font-weight:500;font-stretch:normal;line-height:125%;letter-spacing:0px;word-spacing:0px;fill:#000000;fill-opacity:1;stroke:none;font-family:Ubuntu;-inkscape-font-specification:Ubuntu Medium"
       x="615.36395"
       y="100.26284"
       id="text3808"
       sodipodi:linespacing="125%"><tspan
         sodipodi:role="line"
         x="615.36395"
         y="100.26284"
         style="font-size:48px;font-style:normal;font-variant:normal;font-weight:500;font-stretch:normal;text-align:center;text-anchor:middle;font-family:Ubuntu;-inkscape-font-specification:Ubuntu Medium"
         id="tspan4242">Hair</tspan><tspan
         sodipodi:role="line"
         x="615.36395"
         y="160.26285"
         style="font-size:48px;font-style:normal;font-variant:normal;font-weight:500;font-stretch:normal;text-align:center;text-anchor:middle;font-family:Ubuntu;-inkscape-font-specification:Ubuntu Medium"
         id="tspan4353">Type</tspan></text>
    <text
       xml:space="preserve"
       style="font-size:40px;font-style:normal;font-variant:normal;font-weight:500;font-stretch:normal;line-height:125%;letter-spacing:0px;word-spacing:0px;fill:#000000;fill-opacity:1;stroke:none;font-family:Ubuntu;-inkscape-font-specification:Ubuntu Medium"
       x="615.36395"
       y="301.00946"
       id="text3808-3"
       sodipodi:linespacing="125%"><tspan
         sodipodi:role="line"
         x="615.36395"
         y="301.00946"
         style="font-size:48px;font-style:normal;font-variant:normal;font-weight:500;font-stretch:normal;text-align:center;text-anchor:middle;font-family:Ubuntu;-inkscape-font-specification:Ubuntu Medium"
         id="tspan4240">Hair</tspan><tspan
         sodipodi:role="line"
         x="615.36395"
         y="361.00946"
         style="font-size:48px;font-style:normal;font-variant:normal;font-weight:500;font-stretch:normal;text-align:center;text-anchor:middle;font-family:Ubuntu;-inkscape-font-specification:Ubuntu Medium"
         id="tspan4357">Colour</tspan></text>
    <text
       xml:space="preserve"
       style="font-size:40px;font-style:normal;font-variant:normal;font-weight:500;font-stretch:normal;line-height:125%;letter-spacing:0px;word-spacing:0px;fill:#000000;fill-opacity:1;stroke:none;font-family:Ubuntu;-inkscape-font-specification:Ubuntu Medium"
       x="615.7038"
       y="503.59467"
       id="text3808-1"
       sodipodi:linespacing="125%"><tspan
         sodipodi:role="line"
         x="615.7038"
         y="503.59467"
         style="font-size:48px;font-style:normal;font-variant:normal;font-weight:500;font-stretch:normal;text-align:center;text-anchor:middle;font-family:Ubuntu;-inkscape-font-specification:Ubuntu Medium"
         id="tspan4244">Hair</tspan><tspan
         sodipodi:role="line"
         x="615.7038"
         y="563.59467"
         style="font-size:48px;font-style:normal;font-variant:normal;font-weight:500;font-stretch:normal;text-align:center;text-anchor:middle;font-family:Ubuntu;-inkscape-font-specification:Ubuntu Medium"
         id="tspan4361">Colour</tspan></text>
    <text
       xml:space="preserve"
       style="font-size:40px;font-style:normal;font-variant:normal;font-weight:500;font-stretch:normal;line-height:125%;letter-spacing:0px;word-spacing:0px;fill:#000000;fill-opacity:1;stroke:none;font-family:Ubuntu;-inkscape-font-specification:Ubuntu Medium"
       x="616.05536"
       y="704.36334"
       id="text3808-9"
       sodipodi:linespacing="125%"><tspan
         sodipodi:role="line"
         x="616.05536"
         y="704.36334"
         style="font-size:48px;font-style:normal;font-variant:normal;font-weight:500;font-stretch:normal;text-align:center;text-anchor:middle;font-family:Ubuntu;-inkscape-font-specification:Ubuntu Medium"
         id="tspan4246">Hair</tspan><tspan
         sodipodi:role="line"
         x="616.05536"
         y="764.36334"
         style="font-size:48px;font-style:normal;font-variant:normal;font-weight:500;font-stretch:normal;text-align:center;text-anchor:middle;font-family:Ubuntu;-inkscape-font-specification:Ubuntu Medium"
         id="tspan4365">Colour</tspan></text>
    <text
       xml:space="preserve"
       style="font-size:40px;font-style:normal;font-variant:normal;font-weight:500;font-stretch:normal;line-height:125%;letter-spacing:0px;word-spacing:0px;fill:#000000;fill-opacity:1;stroke:none;font-family:Ubuntu;-inkscape-font-specification:Ubuntu Medium"
       x="615.91473"
       y="905.13214"
       id="text3808-5"
       sodipodi:linespacing="125%"><tspan
         id="tspan4143"
         sodipodi:role="line"
         x="615.91473"
         y="905.13214"
         style="font-size:48px;font-style:normal;font-variant:normal;font-weight:500;font-stretch:normal;text-align:center;text-anchor:middle;font-family:Ubuntu;-inkscape-font-specification:Ubuntu Medium">Hair</tspan><tspan
         sodipodi:role="line"
         x="615.91473"
         y="965.13214"
         style="font-size:48px;font-style:normal;font-variant:normal;font-weight:500;font-stretch:normal;text-align:center;text-anchor:middle;font-family:Ubuntu;-inkscape-font-specification:Ubuntu Medium"
         id="tspan4248">Colour</tspan></text>
  </g>
</svg>
